<svg width="140" height="59" viewBox="0 0 140 59" fill="none" xmlns="http://www.w3.org/2000/svg">
<ellipse cx="29.5465" cy="29.5" rx="29.5465" ry="29.5" fill="#76B5FB"/>
<ellipse cx="29.5465" cy="29.5" rx="29.5465" ry="29.5" fill="url(#paint0_linear)"/>
<path fill-rule="evenodd" clip-rule="evenodd" d="M82.2009 21.2703C82.7171 21.2703 83.132 21.4362 83.4454 21.7681C83.7588 22.0815 83.9155 22.5056 83.9155 23.0403V39.4128C83.9155 39.929 83.768 40.3347 83.473 40.6297C83.178 40.9247 82.7909 41.0722 82.3115 41.0722C81.8321 41.0722 81.4541 40.9247 81.1776 40.6297C80.901 40.3347 80.7627 39.929 80.7627 39.4128V28.0184L76.0612 36.9237C75.8399 37.3294 75.6002 37.6336 75.3421 37.8364C75.084 38.0208 74.7798 38.1129 74.4295 38.1129C74.0791 38.1129 73.7749 38.0208 73.5168 37.8364C73.2587 37.652 73.019 37.3478 72.7977 36.9237L68.0685 28.1567V39.4128C68.0685 39.9106 67.921 40.3162 67.626 40.6297C67.3495 40.9247 66.9715 41.0722 66.4921 41.0722C66.0127 41.0722 65.6348 40.9247 65.3582 40.6297C65.0816 40.3347 64.9434 39.929 64.9434 39.4128V23.0403C64.9434 22.5056 65.0909 22.0815 65.3859 21.7681C65.6993 21.4362 66.1141 21.2703 66.6304 21.2703C67.3495 21.2703 67.9118 21.6667 68.3174 22.4595L74.4571 34.1581L80.5691 22.4595C80.9748 21.6667 81.5187 21.2703 82.2009 21.2703ZM94.0051 41.1275C92.6223 41.1275 91.4054 40.8417 90.3545 40.2701C89.322 39.6986 88.5199 38.8781 87.9484 37.8087C87.3768 36.7394 87.091 35.4948 87.091 34.0751C87.091 32.6554 87.3768 31.4201 87.9484 30.3692C88.5199 29.2998 89.322 28.4794 90.3545 27.9078C91.4054 27.3362 92.6223 27.0504 94.0051 27.0504C95.3879 27.0504 96.5956 27.3362 97.6281 27.9078C98.679 28.4794 99.481 29.2998 100.034 30.3692C100.606 31.4201 100.892 32.6554 100.892 34.0751C100.892 35.4948 100.606 36.7394 100.034 37.8087C99.481 38.8781 98.679 39.6986 97.6281 40.2701C96.5956 40.8417 95.3879 41.1275 94.0051 41.1275ZM93.9775 38.4448C95.1021 38.4448 95.9595 38.0761 96.5495 37.3386C97.1395 36.6011 97.4345 35.5133 97.4345 34.0751C97.4345 32.6554 97.1395 31.5769 96.5495 30.8394C95.9595 30.0834 95.1114 29.7055 94.0051 29.7055C93.8979 29.7055 93.793 29.709 93.6905 29.7161C94.5202 30.1353 95.1027 31.1189 95.1027 32.2656C95.1027 33.793 94.0692 35.0312 92.7944 35.0312C91.7683 35.0312 90.8985 34.229 90.5982 33.1195C90.5648 33.4187 90.5481 33.7373 90.5481 34.0751C90.5481 35.5133 90.8431 36.6011 91.4331 37.3386C92.0231 38.0761 92.8712 38.4448 93.9775 38.4448ZM105.46 41.0722C104.962 41.0722 104.548 40.9339 104.216 40.6573C103.902 40.3623 103.746 39.9475 103.746 39.4128V22.902C103.746 22.3673 103.902 21.9617 104.216 21.6851C104.548 21.4086 104.962 21.2703 105.46 21.2703C105.958 21.2703 106.373 21.4086 106.705 21.6851C107.037 21.9617 107.203 22.3673 107.203 22.902V39.4128C107.203 39.9475 107.037 40.3623 106.705 40.6573C106.373 40.9339 105.958 41.0722 105.46 41.0722ZM122.051 21.2703C122.568 21.2703 122.992 21.4178 123.324 21.7128C123.655 22.0078 123.821 22.395 123.821 22.8744V39.4128C123.821 39.9106 123.665 40.307 123.351 40.602C123.038 40.897 122.623 41.0445 122.107 41.0445C121.59 41.0445 121.176 40.897 120.862 40.602C120.549 40.307 120.392 39.9106 120.392 39.4128V38.7214C119.986 39.4773 119.396 40.0673 118.622 40.4914C117.866 40.9154 116.999 41.1275 116.022 41.1275C114.861 41.1275 113.819 40.8325 112.897 40.2425C111.994 39.6525 111.284 38.8228 110.768 37.7534C110.27 36.6656 110.021 35.4211 110.021 34.0198C110.021 32.6186 110.27 31.3925 110.768 30.3415C111.284 29.2906 111.994 28.4794 112.897 27.9078C113.801 27.3362 114.842 27.0504 116.022 27.0504C116.999 27.0504 117.866 27.2533 118.622 27.6589C119.378 28.0645 119.959 28.6361 120.364 29.3736V22.819C120.364 22.3581 120.512 21.9894 120.807 21.7128C121.12 21.4178 121.535 21.2703 122.051 21.2703ZM116.935 38.4448C118.041 38.4448 118.889 38.0669 119.479 37.3109C120.088 36.555 120.392 35.4764 120.392 34.0751C120.392 32.6739 120.088 31.6045 119.479 30.867C118.889 30.1111 118.05 29.7331 116.963 29.7331C116.912 29.7331 116.861 29.7339 116.811 29.7355C117.621 30.165 118.186 31.1362 118.186 32.2656C118.186 33.793 117.153 35.0312 115.878 35.0312C114.716 35.0312 113.756 34.004 113.593 32.6666C113.516 33.0768 113.478 33.5279 113.478 34.0198C113.478 35.4211 113.782 36.5089 114.391 37.2833C114.999 38.0576 115.847 38.4448 116.935 38.4448ZM136.808 28.1014C136.956 27.7695 137.149 27.5298 137.389 27.3823C137.647 27.2164 137.924 27.1334 138.219 27.1334C138.643 27.1334 139.021 27.2809 139.353 27.5759C139.703 27.8525 139.878 28.2028 139.878 28.6269C139.878 28.8297 139.823 29.0417 139.712 29.2629L132.162 45.0823C131.849 45.7092 131.36 46.0226 130.696 46.0226C130.272 46.0226 129.894 45.8844 129.562 45.6078C129.249 45.3497 129.092 45.0178 129.092 44.6122C129.092 44.4094 129.148 44.1789 129.258 43.9208L131.139 39.9659L125.995 29.2629C125.903 29.0786 125.856 28.8665 125.856 28.6269C125.856 28.2028 126.032 27.8433 126.382 27.5483C126.751 27.2533 127.166 27.1058 127.626 27.1058C127.94 27.1058 128.226 27.1887 128.484 27.3547C128.742 27.5022 128.945 27.7419 129.092 28.0737L132.964 36.6195L136.808 28.1014Z" fill="#00112B"/>
<g filter="url(#filter0_d)">
<path fill-rule="evenodd" clip-rule="evenodd" d="M39.3474 9.31474C38.5272 9.1007 37.6194 9.34771 37.0246 10.0286L27.1506 21.3317L22.7468 11.036C22.5296 10.5282 22.1516 10.1383 21.6976 9.90036C20.9131 9.17171 19.7214 8.98649 18.7288 9.52444C14.5453 11.7917 11.3548 15.1744 9.32612 19.1035C6.99276 23.6024 6.3051 28.54 7.06025 33.2125C7.19411 34.0444 7.37518 34.8737 7.60455 35.6965C9.18872 41.3954 12.9747 46.4815 18.565 49.5762C19.8034 50.2617 21.3637 49.815 22.0501 48.5784C22.7364 47.3419 22.2889 45.7837 21.0506 45.0982C18.0209 43.4211 15.6746 40.9908 14.1161 38.1717C14.0973 38.1328 14.0775 38.0941 14.0567 38.0557C13.5723 37.1653 13.1722 36.2517 12.8537 35.3242C12.4889 34.258 12.2257 33.1583 12.0685 32.0409C11.1664 25.5723 13.9186 18.9497 19.4648 15.0823L24.322 26.4382C24.3419 26.4899 24.3637 26.5409 24.3874 26.5912L27.278 33.3493C27.7786 34.5197 29.1335 35.0639 30.3043 34.5647C31.475 34.0655 32.0182 32.7121 31.5176 31.5416L29.1631 26.0368L39.1287 14.6289C41.7412 16.2743 43.7883 18.5043 45.193 21.0508C45.2097 21.0849 45.2271 21.1188 45.2455 21.1525C45.6124 21.8271 45.931 22.515 46.2024 23.2122C49.3916 31.4049 46.0628 40.8799 38.1247 45.1821C36.881 45.8561 36.4209 47.4103 37.0971 48.6534C37.7733 49.8965 39.3297 50.3578 40.5734 49.6838C44.9026 47.3375 48.1685 43.7967 50.1838 39.692C52.1862 35.6346 52.8705 31.2418 52.3829 27.0209C52.2125 25.5309 51.8927 24.0445 51.4172 22.583C49.6932 17.2628 46.0209 12.5575 40.7361 9.63198C40.2959 9.38834 39.8152 9.28771 39.3474 9.31474Z" fill="#00112B"/>
</g>
<defs>
<filter id="filter0_d" x="3.07983" y="9.21436" width="53.1414" height="48.1545" filterUnits="userSpaceOnUse" color-interpolation-filters="sRGB">
<feFlood flood-opacity="0" result="BackgroundImageFix"/>
<feColorMatrix in="SourceAlpha" type="matrix" values="0 0 0 0 0 0 0 0 0 0 0 0 0 0 0 0 0 0 127 0"/>
<feOffset dy="3.6875"/>
<feGaussianBlur stdDeviation="1.84375"/>
<feColorMatrix type="matrix" values="0 0 0 0 0 0 0 0 0 0 0 0 0 0 0 0 0 0 0.25 0"/>
<feBlend mode="normal" in2="BackgroundImageFix" result="effect1_dropShadow"/>
<feBlend mode="normal" in="SourceGraphic" in2="effect1_dropShadow" result="shape"/>
</filter>
<linearGradient id="paint0_linear" x1="5.07831" y1="5.07031" x2="67.797" y2="50.336" gradientUnits="userSpaceOnUse">
<stop stop-color="#69EDDF"/>
<stop offset="1" stop-color="white" stop-opacity="0"/>
</linearGradient>
</defs>
</svg>
